<?xml version="1.0" standalone="no"?>
<!DOCTYPE svg PUBLIC "-//W3C//DTD SVG 20010904//EN"
 "http://www.w3.org/TR/2001/REC-SVG-20010904/DTD/svg10.dtd">
<svg version="1.0" xmlns="http://www.w3.org/2000/svg"
 width="500.000000pt" height="500.000000pt" viewBox="0 0 500.000000 500.000000"
 preserveAspectRatio="xMidYMid meet">
<metadata>
Created by potrace 1.16, written by Peter Selinger 2001-2019
</metadata>
<g transform="translate(0.000000,500.000000) scale(0.100000,-0.100000)"
fill="#000000" stroke="none">
<path d="M2225 3373 c-27 -15 -122 -60 -210 -100 -88 -41 -170 -85 -183 -99
-13 -13 -29 -24 -37 -24 -8 0 -17 -5 -21 -12 -5 -8 -1 -9 12 -5 14 5 12 2 -6
-13 -14 -11 -36 -19 -50 -19 -23 0 -23 1 -5 8 11 5 23 7 28 4 4 -2 7 1 7 6 0
16 -4 15 -131 -24 -170 -53 -176 -57 -184 -104 -4 -22 -3 -46 1 -52 4 -8 3 -9
-4 -5 -8 5 -12 -1 -12 -16 0 -27 61 -93 75 -81 4 5 5 3 2 -3 -8 -14 66 -87 78
-77 4 5 5 3 2 -3 -8 -14 409 -430 426 -426 7 2 9 0 5 -4 -12 -12 12 -33 30
-27 15 4 15 3 2 -6 -12 -9 47 -72 324 -350 301 -301 342 -339 359 -329 11 6
133 92 271 192 138 99 288 208 333 240 58 41 100 82 140 134 65 87 103 182 83
207 -14 17 -35 21 -25 5 3 -5 1 -10 -5 -10 -7 0 -10 7 -6 15 3 9 -10 27 -37
49 -140 115 -209 166 -219 160 -6 -4 -8 -3 -5 3 9 15 -39 57 -54 48 -7 -5 -10
-4 -6 2 9 14 -140 136 -155 127 -6 -4 -8 -3 -4 4 4 6 -65 68 -166 148 -95 76
-252 204 -348 284 -195 163 -219 180 -240 179 -8 0 -37 -12 -65 -26z m140 -45
c22 -18 77 -63 123 -101 l84 -69 -173 -94 -172 -93 -124 111 -125 112 61 31
c34 17 58 35 54 39 -4 5 -3 6 4 2 7 -4 34 5 60 19 26 14 41 24 32 22 -9 -3
-16 1 -16 8 0 10 5 11 19 4 10 -6 17 -19 15 -32 -2 -17 4 -23 26 -25 27 -3 29
-2 26 33 -3 31 1 39 21 51 35 19 41 18 85 -18z m-385 -163 c7 -8 16 -12 21 -9
5 3 8 1 7 -4 -2 -6 183 -175 411 -377 360 -319 415 -364 430 -353 14 11 14 11
3 -3 -11 -14 8 -35 148 -159 l160 -142 -23 -20 c-12 -11 -16 -16 -8 -12 9 4
12 3 8 -4 -4 -5 -17 -8 -30 -5 -21 4 -21 4 -3 -11 16 -13 22 -13 35 -3 14 11
14 10 2 -6 -12 -15 -16 -16 -35 -4 -12 8 -21 21 -21 28 -1 8 -6 13 -13 12 -7
-2 -11 3 -9 10 1 6 -4 11 -11 9 -8 -1 -11 1 -8 6 8 13 -40 55 -54 47 -6 -4 -9
-1 -8 7 2 7 -3 12 -9 11 -7 -2 -12 2 -10 9 1 7 -5 13 -13 13 -8 0 -14 6 -13
12 3 15 -46 55 -58 47 -5 -3 -8 0 -7 7 2 7 -4 14 -12 14 -8 0 -14 6 -13 12 3
13 -40 54 -60 57 -21 3 -58 37 -51 47 5 8 -44 48 -61 50 -15 1 -35 20 -30 29
6 9 -38 51 -56 53 -8 2 -16 7 -17 12 -7 20 -25 35 -35 28 -5 -3 -7 -1 -4 4 4
6 -7 21 -25 34 -17 13 -32 22 -33 19 -2 -3 -12 3 -24 14 -11 10 -18 22 -16 26
6 9 -73 75 -90 75 -5 1 -9 6 -8 12 3 12 -74 78 -92 78 -5 1 -9 6 -8 12 3 15
-92 95 -101 85 -4 -4 -6 -2 -4 4 2 7 -48 58 -111 115 -104 94 -112 104 -95
116 23 17 39 16 54 -2z m663 -67 c23 -18 80 -64 126 -102 77 -65 82 -71 65
-83 -11 -8 -85 -55 -167 -104 l-147 -90 -34 26 c-18 14 -36 22 -41 17 -5 -4
-5 -2 -2 5 9 14 -72 85 -86 76 -6 -3 -7 -1 -3 5 7 12 -72 84 -85 77 -17 -11
-1 30 18 42 18 12 20 11 19 -9 -1 -18 5 -24 27 -26 25 -3 27 -1 27 36 0 38 2
40 60 71 33 18 58 36 55 41 -3 5 0 12 6 16 8 4 9 3 5 -4 -11 -17 4 -14 54 13
25 13 49 24 53 25 5 0 27 -15 50 -32z m389 -316 c124 -102 141 -124 113 -149
-4 -5 -5 -2 -1 5 13 21 -4 13 -79 -39 -52 -37 -72 -56 -68 -68 4 -12 3 -13 -5
-3 -7 11 -25 3 -85 -38 -51 -36 -79 -50 -88 -44 -8 5 -18 9 -24 9 -5 1 -9 6
-8 12 3 13 -68 69 -80 65 -5 -1 -6 2 -3 7 7 11 -79 82 -89 73 -5 -4 -5 -2 -1
5 4 7 -8 23 -29 39 -19 14 -35 29 -35 33 0 6 86 61 94 61 2 0 2 -8 -1 -19 -5
-20 18 -34 43 -24 11 4 15 17 13 42 -3 45 -9 57 -20 40 -6 -10 -9 -10 -9 -2 0
16 17 26 25 13 9 -15 66 17 59 34 -7 18 12 30 22 15 4 -8 3 -9 -4 -5 -7 4 -12
2 -12 -3 0 -6 5 -11 10 -11 6 0 10 -9 10 -19 0 -11 6 -21 13 -24 25 -8 37 6
37 44 0 32 5 41 27 53 16 8 32 11 38 8 5 -3 67 -53 137 -110z m-927 99 c3 -5
0 -13 -6 -17 -8 -4 -9 -3 -5 4 10 16 3 15 -75 -10 -37 -12 -66 -25 -63 -29 2
-4 -1 -11 -7 -15 -8 -4 -9 -3 -5 4 4 7 1 12 -8 12 -16 0 -56 -37 -56 -52 0
-20 51 -17 114 7 38 14 71 23 74 20 3 -3 0 -5 -6 -5 -7 0 -11 -5 -9 -11 1 -6
-5 -14 -13 -16 -13 -4 -13 -3 0 6 17 12 6 14 -27 5 -13 -4 -20 -11 -16 -17 4
-6 1 -7 -6 -2 -7 4 -22 -2 -37 -16 -23 -21 -23 -23 -5 -35 15 -11 35 -7 137
31 110 41 154 49 140 26 -4 -5 2 -11 11 -13 12 -3 3 -9 -24 -18 -31 -9 -40
-17 -36 -29 3 -11 2 -12 -4 -3 -7 9 -19 9 -57 -4 -35 -12 -44 -19 -35 -26 10
-7 8 -8 -7 -3 -22 6 -53 -19 -40 -32 4 -4 -4 -13 -16 -19 -51 -28 58 0 166 42
91 36 111 41 122 29 11 -11 11 -14 -2 -19 -8 -3 -12 -2 -9 4 9 15 3 13 -82
-21 -93 -36 -123 -54 -123 -74 0 -32 42 -27 151 20 98 43 151 53 134 25 -3 -5
1 -10 10 -10 9 0 14 -4 11 -9 -4 -5 0 -12 6 -15 7 -3 2 -3 -11 0 -16 4 -21 2
-17 -5 4 -6 1 -9 -7 -5 -8 3 -38 -6 -68 -20 -30 -14 -43 -23 -29 -20 19 4 21
3 10 -5 -8 -6 -24 -8 -35 -5 -13 3 -28 -3 -43 -19 -20 -21 -21 -25 -7 -37 13
-11 34 -5 128 35 145 61 137 59 137 47 0 -6 -9 -14 -20 -17 -11 -4 -18 -11
-15 -16 3 -5 0 -6 -7 -4 -16 6 -139 -47 -155 -67 -46 -59 -3 -57 140 7 59 26
111 44 115 40 4 -4 2 -10 -5 -12 -7 -2 -9 -12 -6 -21 3 -12 2 -13 -4 -4 -8 10
-24 6 -74 -18 -35 -17 -56 -28 -46 -25 11 3 15 1 12 -6 -4 -5 -15 -7 -25 -4
-13 4 -30 -4 -52 -25 -18 -18 -26 -31 -18 -29 8 1 23 -1 32 -5 12 -5 53 9 124
43 59 28 111 51 117 51 12 0 47 -30 47 -40 0 -4 -18 -15 -40 -25 -22 -10 -37
-22 -34 -26 3 -5 -3 -6 -12 -2 -13 5 -15 3 -9 -7 5 -8 4 -11 -3 -6 -14 9 -63
-14 -55 -27 3 -6 1 -7 -5 -3 -18 11 -65 -24 -52 -39 5 -6 8 -14 5 -17 -3 -2 3
-5 12 -6 10 -1 68 25 130 56 87 44 114 54 124 45 9 -9 2 -17 -34 -34 -25 -12
-43 -27 -40 -32 3 -6 1 -7 -5 -3 -19 11 -132 -52 -132 -74 0 -5 12 -11 26 -14
19 -5 51 7 135 50 l110 58 26 -27 c15 -14 25 -28 22 -30 -2 -2 -42 -24 -89
-50 -91 -49 -129 -80 -110 -92 5 -3 8 -10 5 -15 -13 -21 45 4 141 60 57 33
106 60 108 60 3 0 10 -9 16 -20 9 -16 8 -18 -5 -14 -11 5 -14 2 -9 -12 4 -14
3 -16 -4 -5 -10 14 -36 6 -27 -9 3 -5 0 -12 -6 -16 -8 -4 -9 -3 -5 4 12 19 -6
13 -59 -19 -27 -17 -42 -28 -32 -25 11 4 16 2 12 -5 -4 -5 -15 -7 -24 -4 -20
6 -49 -21 -48 -45 1 -37 51 -17 234 96 17 11 23 11 32 1 8 -10 -15 -28 -94
-77 -57 -36 -106 -73 -109 -82 -2 -10 0 -15 5 -12 6 3 16 1 24 -6 10 -9 36 3
120 55 100 62 145 76 132 40 -4 -8 -1 -12 6 -10 7 3 23 -4 36 -15 18 -15 21
-23 12 -33 -6 -8 -8 -17 -4 -21 4 -4 1 -5 -7 -2 -8 3 -26 -3 -40 -14 -21 -17
-21 -19 -5 -14 16 5 17 4 5 -4 -8 -6 -18 -8 -22 -6 -12 8 -98 -58 -91 -69 3
-6 1 -7 -5 -3 -15 9 -104 -53 -95 -67 3 -6 1 -7 -6 -3 -6 4 -19 2 -27 -5 -12
-10 -20 -7 -44 16 -16 15 -26 33 -23 39 3 6 2 8 -2 3 -5 -4 -21 5 -37 20 -23
22 -26 29 -15 42 10 14 10 14 -4 4 -13 -11 -20 -8 -43 16 -16 16 -25 34 -22
40 4 6 1 9 -6 6 -17 -7 -62 40 -54 54 4 6 1 9 -6 6 -7 -3 -38 20 -68 50 -45
46 -52 58 -40 66 12 9 11 10 -4 5 -14 -5 -34 8 -75 47 -168 161 -271 263 -271
269 0 4 9 10 21 13 11 4 18 9 16 12 -3 2 -15 -1 -27 -7 -20 -11 -27 -7 -71 36
-26 26 -46 51 -43 56 3 4 -1 8 -9 8 -16 0 -49 34 -42 43 3 4 2 5 -2 2 -9 -7
-53 36 -47 46 3 5 -1 9 -9 9 -17 0 -49 34 -40 43 3 4 0 7 -9 7 -18 0 -51 34
-41 43 3 4 0 7 -9 7 -8 0 -22 8 -31 18 -14 16 -10 19 69 43 78 25 83 25 73 7
-7 -14 -7 -23 1 -33 9 -11 31 -6 123 25 123 42 133 44 142 31z m1173 -302 c41
-34 79 -62 86 -63 21 -3 36 -17 30 -27 -3 -6 2 -9 12 -7 11 2 18 -2 17 -9 -3
-13 20 -34 39 -37 7 -1 13 -4 13 -7 0 -3 6 -13 13 -21 11 -14 -2 -27 -90 -98
-57 -45 -102 -86 -100 -91 1 -5 -2 -8 -7 -7 -16 5 -111 -74 -104 -86 3 -6 -5
-1 -19 12 -13 12 -28 19 -33 15 -4 -5 -5 -3 -2 4 4 6 -9 24 -29 40 l-36 29 96
72 c53 40 94 77 91 82 -3 5 0 12 6 16 8 4 9 3 5 -4 -11 -18 2 -14 34 10 22 16
27 24 18 31 -9 6 -8 7 4 4 17 -6 74 31 64 41 -3 2 -11 1 -19 -4 -7 -5 -5 -2 5
7 9 9 15 19 12 22 -3 3 -42 -22 -86 -56 -44 -34 -75 -63 -69 -65 6 -2 8 -8 5
-14 -4 -7 -9 -6 -14 2 -10 17 -81 -36 -74 -55 3 -7 1 -16 -5 -20 -7 -3 -8 0
-5 9 3 9 2 16 -4 16 -14 0 -33 -26 -25 -34 4 -4 0 -4 -8 -1 -9 3 -22 -1 -29
-10 -17 -21 -27 -19 -62 10 -16 14 -35 22 -40 19 -6 -4 -8 -2 -4 4 6 11 -72
84 -83 77 -4 -2 -8 5 -8 16 -1 11 9 27 23 36 14 8 22 18 19 21 -3 3 -13 -3
-24 -12 -12 -11 -21 -14 -26 -7 -3 6 -1 11 5 11 6 0 21 9 33 21 12 11 36 27
52 35 27 14 28 13 10 0 -11 -9 -24 -19 -30 -24 -5 -4 -10 -26 -10 -48 0 -35 3
-39 25 -39 20 0 26 6 28 30 2 17 -2 33 -11 40 -12 9 -10 14 17 32 l32 21 -4
-28 c-4 -31 21 -48 44 -29 19 15 18 58 -1 65 -8 4 -12 11 -8 17 4 6 -2 8 -15
5 -13 -4 -20 -2 -16 4 3 5 16 7 29 4 28 -7 38 3 22 22 -11 13 -9 14 10 1 14
-8 21 -20 18 -30 -7 -20 19 -43 40 -35 22 8 21 76 -2 76 -12 0 -6 8 17 25 19
13 39 24 44 25 5 0 43 -27 84 -61z"/>
</g>
</svg>
