<svg version="1.1" id="Layer_1" xmlns="http://www.w3.org/2000/svg" xmlns:xlink="http://www.w3.org/1999/xlink" x="0px" y="0px"
	 width="100%" viewBox="0 0 500 500" enable-background="new 0 0 500 500" xml:space="preserve">
<path fill="#000000" opacity="1.000000" stroke="none" 
	d="
M293.000000,501.000000 
	C195.333359,501.000000 98.166710,501.000000 1.000052,501.000000 
	C1.000035,334.333405 1.000035,167.666794 1.000017,1.000142 
	C167.666565,1.000094 334.333130,1.000094 500.999756,1.000047 
	C500.999847,167.666519 500.999847,334.333038 500.999939,500.999786 
	C431.833344,501.000000 362.666656,501.000000 293.000000,501.000000 
M201.222748,232.360687 
	C200.468704,235.197662 199.714676,238.034622 198.187210,240.723175 
	C197.799316,240.208374 197.148102,239.733948 197.062073,239.172852 
	C195.003494,225.746841 193.137711,212.289032 190.860703,198.900986 
	C190.499374,196.776596 188.216599,193.236176 187.027298,193.318375 
	C183.283173,193.577133 179.620605,195.203079 175.985367,196.468933 
	C175.716095,196.562683 175.758682,198.034897 175.924210,198.808975 
	C176.565643,201.808594 177.537781,204.752396 177.981781,207.776428 
	C179.137833,215.650116 179.894089,223.584946 181.151764,231.440643 
	C182.947937,242.660110 185.076584,253.826004 187.008606,265.024200 
	C188.096405,271.329285 189.074478,277.653259 190.102768,283.973480 
	C194.850861,283.973480 198.844833,283.898743 202.834442,283.998596 
	C205.707092,284.070496 207.582474,283.167267 208.047974,280.055695 
	C209.319305,271.557770 210.692368,263.075134 211.990707,254.581177 
	C213.337921,245.767517 214.689819,236.954163 215.958023,228.128922 
	C217.566162,216.938049 219.091934,205.735352 220.698746,194.211380 
	C215.433472,194.211380 211.337387,194.211380 206.824036,194.211380 
	C205.174805,206.895370 203.544617,219.432831 201.222748,232.360687 
M265.235931,250.214401 
	C264.821014,246.670319 264.454651,243.119751 263.982422,239.583328 
	C262.346008,227.328781 260.892548,215.043976 258.940155,202.839355 
	C257.521759,193.972733 257.219330,194.021317 247.889084,194.015350 
	C245.723328,194.013962 243.517624,193.763458 241.407272,194.104218 
	C240.204788,194.298355 238.450531,195.255585 238.177109,196.218979 
	C237.433594,198.838791 237.354858,201.645966 236.997391,204.376877 
	C236.130493,211.000061 235.340393,217.634781 234.359253,224.241089 
	C233.338226,231.116043 232.067673,237.953705 231.020493,244.825089 
	C230.039612,251.261505 229.200165,257.719574 228.313416,264.170197 
	C227.419067,270.676147 226.543182,277.184601 225.603882,284.099304 
	C231.072220,284.099304 235.457230,284.099304 239.706635,284.099304 
	C242.544968,266.511993 238.184906,269.026215 254.106735,269.063934 
	C254.254639,269.064270 254.402222,269.208405 254.924896,269.480835 
	C255.729309,274.093506 256.578705,278.964203 257.411285,283.738342 
	C261.683563,283.738342 265.625061,283.738342 270.590912,283.738342 
	C269.185486,276.568268 267.817322,269.813507 266.583832,263.034241 
	C266.413086,262.095703 266.908234,261.035980 267.762085,259.701569 
	C266.874481,256.791443 265.986908,253.881348 265.235931,250.214401 
M293.971558,265.137939 
	C293.958984,261.763947 293.946411,258.389954 293.944397,254.325653 
	C294.267059,250.627869 294.589691,246.930084 294.912323,243.232300 
	C295.345367,243.137985 295.778442,243.043655 296.211487,242.949326 
	C301.358978,256.612671 306.506439,270.276001 311.669403,283.980408 
	C313.212585,283.980408 314.540924,283.973480 315.869202,283.981567 
	C322.977936,284.024841 323.087524,284.024323 322.970734,276.884766 
	C322.876129,271.102844 322.219513,265.324127 322.259674,259.547119 
	C322.384003,241.660248 322.860504,223.775391 322.929321,205.888718 
	C322.976624,193.601181 322.775055,193.598740 310.419312,194.055573 
	C310.104126,194.067215 309.794128,194.218628 308.543304,194.563873 
	C308.543304,208.316055 308.543304,222.374619 308.543304,236.433182 
	C308.105286,236.475250 307.667236,236.517319 307.229218,236.559387 
	C304.489014,229.340683 301.728058,222.129776 299.015106,214.900848 
	C296.752228,208.871231 294.660858,202.773209 292.217255,196.818878 
	C291.726959,195.624161 290.077484,194.322433 288.812683,194.146454 
	C285.949799,193.748108 282.993500,194.021164 280.442291,194.021164 
	C280.442291,224.335602 280.442291,254.056274 280.442291,283.768921 
	C281.023102,283.847992 281.545349,283.833313 282.006042,283.994537 
	C289.922791,286.765961 294.016449,284.050842 293.996277,275.984344 
	C293.987976,272.658844 293.890900,269.333527 293.971558,265.137939 
z"/>
<path fill="#D5D5D5" opacity="1.000000" stroke="none" 
	d="
M293.834229,266.008148 
	C293.890900,269.333527 293.987976,272.658844 293.996277,275.984344 
	C294.016449,284.050842 289.922791,286.765961 282.006042,283.994537 
	C281.545349,283.833313 281.023102,283.847992 280.442291,283.768921 
	C280.442291,254.056274 280.442291,224.335602 280.442291,194.021164 
	C282.993500,194.021164 285.949799,193.748108 288.812683,194.146454 
	C290.077484,194.322433 291.726959,195.624161 292.217255,196.818878 
	C294.660858,202.773209 296.752228,208.871231 299.015106,214.900848 
	C301.728058,222.129776 304.489014,229.340683 307.229218,236.559387 
	C307.667236,236.517319 308.105286,236.475250 308.543304,236.433182 
	C308.543304,222.374619 308.543304,208.316055 308.543304,194.563873 
	C309.794128,194.218628 310.104126,194.067215 310.419312,194.055573 
	C322.775055,193.598740 322.976624,193.601181 322.929321,205.888718 
	C322.860504,223.775391 322.384003,241.660248 322.259674,259.547119 
	C322.219513,265.324127 322.876129,271.102844 322.970734,276.884766 
	C323.087524,284.024323 322.977936,284.024841 315.869202,283.981567 
	C314.540924,283.973480 313.212585,283.980408 311.669403,283.980408 
	C306.506439,270.276001 301.358978,256.612671 296.211487,242.949326 
	C295.778442,243.043655 295.345367,243.137985 294.912323,243.232300 
	C294.589691,246.930084 294.267059,250.627869 293.555786,254.664078 
	C291.326050,256.256104 289.484924,257.509705 286.229614,259.726227 
	C289.393219,262.339569 291.613708,264.173859 293.834229,266.008148 
z"/>
<path fill="#D5D5D5" opacity="1.000000" stroke="none" 
	d="
M267.095093,260.032379 
	C266.908234,261.035980 266.413086,262.095703 266.583832,263.034241 
	C267.817322,269.813507 269.185486,276.568268 270.590912,283.738342 
	C265.625061,283.738342 261.683563,283.738342 257.411285,283.738342 
	C256.578705,278.964203 255.729309,274.093506 254.924896,269.480835 
	C254.402222,269.208405 254.254639,269.064270 254.106735,269.063934 
	C238.184906,269.026215 242.544968,266.511993 239.706635,284.099304 
	C235.457230,284.099304 231.072220,284.099304 225.603882,284.099304 
	C226.543182,277.184601 227.419067,270.676147 228.313416,264.170197 
	C229.200165,257.719574 230.039612,251.261505 231.020493,244.825089 
	C232.067673,237.953705 233.338226,231.116043 234.359253,224.241089 
	C235.340393,217.634781 236.130493,211.000061 236.997391,204.376877 
	C237.354858,201.645966 237.433594,198.838791 238.177109,196.218979 
	C238.450531,195.255585 240.204788,194.298355 241.407272,194.104218 
	C243.517624,193.763458 245.723328,194.013962 247.889084,194.015350 
	C257.219330,194.021317 257.521759,193.972733 258.940155,202.839355 
	C260.892548,215.043976 262.346008,227.328781 263.982422,239.583328 
	C264.454651,243.119751 264.821014,246.670319 264.743469,250.598816 
	C263.921570,250.987152 263.591705,251.003296 263.262665,250.993088 
	C260.035980,250.892975 256.871796,251.359863 257.189911,255.486771 
	C257.460571,258.997925 259.456268,260.751007 263.370087,259.213776 
	C264.352966,258.827728 265.839844,259.724945 267.095093,260.032379 
M246.102188,255.898895 
	C246.811829,258.398438 247.248154,261.034698 248.390472,263.317749 
	C248.753555,264.043365 251.013275,264.041809 252.369110,263.931305 
	C252.858536,263.891449 253.242569,262.557922 253.890366,261.443817 
	C252.097580,261.560394 250.868317,261.640350 249.744110,261.713440 
	C247.471481,257.274109 250.862885,257.059418 253.893311,256.487305 
	C253.049149,255.340958 252.498901,254.593750 251.977539,252.936584 
	C251.281723,243.460938 250.585907,233.985275 249.808685,223.401016 
	C248.460297,225.269638 247.369537,226.171295 247.084518,227.280075 
	C245.737671,232.519684 243.949356,237.775635 243.624786,243.105316 
	C243.384293,247.054398 245.148804,251.125580 246.102188,255.898895 
z"/>
<path fill="#D5D5D5" opacity="1.000000" stroke="none" 
	d="
M201.914429,231.970291 
	C203.544617,219.432831 205.174805,206.895370 206.824036,194.211380 
	C211.337387,194.211380 215.433472,194.211380 220.698746,194.211380 
	C219.091934,205.735352 217.566162,216.938049 215.958023,228.128922 
	C214.689819,236.954163 213.337921,245.767517 211.990707,254.581177 
	C210.692368,263.075134 209.319305,271.557770 208.047974,280.055695 
	C207.582474,283.167267 205.707092,284.070496 202.834442,283.998596 
	C198.844833,283.898743 194.850861,283.973480 190.102768,283.973480 
	C189.074478,277.653259 188.096405,271.329285 187.008606,265.024200 
	C185.076584,253.826004 182.947937,242.660110 181.151764,231.440643 
	C179.894089,223.584946 179.137833,215.650116 177.981781,207.776428 
	C177.537781,204.752396 176.565643,201.808594 175.924210,198.808975 
	C175.758682,198.034897 175.716095,196.562683 175.985367,196.468933 
	C179.620605,195.203079 183.283173,193.577133 187.027298,193.318375 
	C188.216599,193.236176 190.499374,196.776596 190.860703,198.900986 
	C193.137711,212.289032 195.003494,225.746841 197.062073,239.172852 
	C197.148102,239.733948 197.799316,240.208374 198.587677,241.182495 
	C198.988129,246.677597 198.988129,251.713379 198.988129,256.749146 
	C199.325638,256.805603 199.663132,256.862091 200.000641,256.918549 
	C200.603302,255.372467 201.205963,253.826370 201.873367,252.114197 
	C203.549484,252.225876 205.097763,252.329041 206.646042,252.432205 
	C201.899307,247.694000 203.386719,241.989410 203.271027,236.574341 
	C203.238037,235.030701 202.389175,233.504486 201.914429,231.970291 
z"/>
<path fill="#CCCCCD" opacity="1.000000" stroke="none" 
	d="
M201.568604,232.165497 
	C202.389175,233.504486 203.238037,235.030701 203.271027,236.574341 
	C203.386719,241.989410 201.899307,247.694000 206.646042,252.432205 
	C205.097763,252.329041 203.549484,252.225876 201.873367,252.114197 
	C201.205963,253.826370 200.603302,255.372467 200.000641,256.918549 
	C199.663132,256.862091 199.325638,256.805603 198.988129,256.749146 
	C198.988129,251.713379 198.988129,246.677597 198.974396,241.256714 
	C199.714676,238.034622 200.468704,235.197662 201.568604,232.165497 
z"/>
<path fill="#CCCCCD" opacity="1.000000" stroke="none" 
	d="
M267.428589,259.866974 
	C265.839844,259.724945 264.352966,258.827728 263.370087,259.213776 
	C259.456268,260.751007 257.460571,258.997925 257.189911,255.486771 
	C256.871796,251.359863 260.035980,250.892975 263.262665,250.993088 
	C263.591705,251.003296 263.921570,250.987152 264.675171,250.977234 
	C265.986908,253.881348 266.874481,256.791443 267.428589,259.866974 
z"/>
<path fill="#CCCCCD" opacity="1.000000" stroke="none" 
	d="
M293.902893,265.573059 
	C291.613708,264.173859 289.393219,262.339569 286.229614,259.726227 
	C289.484924,257.509705 291.326050,256.256104 293.550507,255.009232 
	C293.946411,258.389954 293.958984,261.763947 293.902893,265.573059 
z"/>
<path fill="#000000" opacity="1.000000" stroke="none" 
	d="
M246.020157,255.142365 
	C245.148804,251.125580 243.384293,247.054398 243.624786,243.105316 
	C243.949356,237.775635 245.737671,232.519684 247.084518,227.280075 
	C247.369537,226.171295 248.460297,225.269638 249.808685,223.401016 
	C250.585907,233.985275 251.281723,243.460938 251.607040,253.557831 
	C249.497742,254.500168 247.758942,254.821274 246.020157,255.142365 
z"/>
<path fill="#F0F0F0" opacity="1.000000" stroke="none" 
	d="
M246.061172,255.520630 
	C247.758942,254.821274 249.497742,254.500168 251.592606,254.012817 
	C252.498901,254.593750 253.049149,255.340958 253.893311,256.487305 
	C250.862885,257.059418 247.471481,257.274109 249.744110,261.713440 
	C250.868317,261.640350 252.097580,261.560394 253.890366,261.443817 
	C253.242569,262.557922 252.858536,263.891449 252.369110,263.931305 
	C251.013275,264.041809 248.753555,264.043365 248.390472,263.317749 
	C247.248154,261.034698 246.811829,258.398438 246.061172,255.520630 
z"/>
</svg>